<?xml version="1.0" encoding="UTF-8" standalone="no"?>
<!-- Created with Inkscape (http://www.inkscape.org/) -->

<svg
   xmlns:dc="http://purl.org/dc/elements/1.1/"
   xmlns:cc="http://creativecommons.org/ns#"
   xmlns:rdf="http://www.w3.org/1999/02/22-rdf-syntax-ns#"
   xmlns:svg="http://www.w3.org/2000/svg"
   xmlns="http://www.w3.org/2000/svg"
   xmlns:sodipodi="http://sodipodi.sourceforge.net/DTD/sodipodi-0.dtd"
   xmlns:inkscape="http://www.inkscape.org/namespaces/inkscape"
   width="49.447006mm"
   height="34.395992mm"
   viewBox="0 0 49.447006 34.395992"
   version="1.1"
   id="svg523"
   inkscape:version="0.92.3 (2405546, 2018-03-11)"
   sodipodi:docname="jog-all.svg">
  <defs
     id="defs517" />
  <sodipodi:namedview
     id="base"
     pagecolor="#ffffff"
     bordercolor="#666666"
     borderopacity="1.0"
     inkscape:pageopacity="0.0"
     inkscape:pageshadow="2"
     inkscape:zoom="2.8"
     inkscape:cx="180.6328"
     inkscape:cy="62.28687"
     inkscape:document-units="mm"
     inkscape:current-layer="layer1"
     showgrid="false"
     showborder="false"
     fit-margin-top="0"
     fit-margin-left="0"
     fit-margin-right="0"
     fit-margin-bottom="0"
     inkscape:pagecheckerboard="true"
     inkscape:window-width="2108"
     inkscape:window-height="1252"
     inkscape:window-x="0"
     inkscape:window-y="0"
     inkscape:window-maximized="1" />
  <metadata
     id="metadata520">
    <rdf:RDF>
      <cc:Work
         rdf:about="">
        <dc:format>image/svg+xml</dc:format>
        <dc:type
           rdf:resource="http://purl.org/dc/dcmitype/StillImage" />
        <dc:title></dc:title>
      </cc:Work>
    </rdf:RDF>
  </metadata>
  <g
     inkscape:label="Layer 1"
     inkscape:groupmode="layer"
     id="layer1"
     transform="translate(-182.40745,1.4122855)">
    <g
       transform="matrix(0.26458333,0,0,0.26458333,-77.4133,-184.20198)"
       id="g483">
      <path
         style="fill:#ffee06"
         inkscape:connector-curvature="0"
         d="m 1043.309,692.965 -18.582,31.43 a 4.262,4.262 0 0 0 3.688,6.464 h 37.153 a 4.282,4.282 0 0 0 3.688,-6.464 l -18.572,-31.43 a 4.281,4.281 0 0 0 -7.375,0 z"
         data-name="play-solid"
         id="play-solid-5" />
      <text
         y="722"
         x="1047"
         style="font-weight:700;font-size:14px;font-family:Montserrat-Bold, Montserrat;fill:#16160e"
         font-weight="700"
         font-size="14"
         data-name="Y+"
         id="Y_">
        <tspan
           id="tspan623"
           y="722"
           x="1038.306">Y+</tspan>
      </text>
    </g>
    <g
       transform="matrix(0.26458333,0,0,0.26458333,-77.4133,-184.20198)"
       id="g478">
      <path
         style="fill:#ffee06"
         inkscape:connector-curvature="0"
         d="m 1142.309,692.965 -18.582,31.43 a 4.262,4.262 0 0 0 3.688,6.464 h 37.153 a 4.282,4.282 0 0 0 3.688,-6.464 l -18.572,-31.43 a 4.281,4.281 0 0 0 -7.375,0 z"
         data-name="play-solid"
         id="play-solid-6" />
      <text
         y="722"
         x="1146"
         style="font-weight:700;font-size:14px;font-family:Montserrat-Bold, Montserrat;fill:#16160e"
         font-weight="700"
         font-size="14"
         data-name="Z+"
         id="Z_">
        <tspan
           id="tspan626"
           y="722"
           x="1137.1591">Z+</tspan>
      </text>
    </g>
    <g
       transform="matrix(0.26458333,0,0,0.26458333,-77.4133,-184.20198)"
       id="g463">
      <path
         style="fill:#ffee06"
         inkscape:connector-curvature="0"
         d="m 1050.691,818.753 18.582,-31.43 a 4.262,4.262 0 0 0 -3.688,-6.464 h -37.153 a 4.282,4.282 0 0 0 -3.688,6.464 l 18.572,31.43 a 4.281,4.281 0 0 0 7.375,0 z"
         data-name="play-solid"
         id="play-solid-3" />
      <text
         y="800"
         x="1047"
         style="font-weight:700;font-size:14px;font-family:Montserrat-Bold, Montserrat;fill:#16160e"
         font-weight="700"
         font-size="14"
         id="Y-">
        <tspan
           id="tspan629"
           y="800"
           x="1039.797">Y-</tspan>
      </text>
    </g>
    <g
       transform="matrix(0.26458333,0,0,0.26458333,-77.4133,-184.20198)"
       id="g473">
      <path
         style="fill:#ffee06"
         inkscape:connector-curvature="0"
         d="m 1149.691,818.753 18.582,-31.43 a 4.262,4.262 0 0 0 -3.688,-6.464 h -37.153 a 4.282,4.282 0 0 0 -3.688,6.464 l 18.572,31.43 a 4.281,4.281 0 0 0 7.375,0 z"
         data-name="play-solid"
         id="play-solid-4" />
      <text
         y="800"
         x="1146"
         style="font-weight:700;font-size:14px;font-family:Montserrat-Bold, Montserrat;fill:#16160e"
         font-weight="700"
         font-size="14"
         id="Z-">
        <tspan
           id="tspan632"
           y="800"
           x="1138.65">Z-</tspan>
      </text>
    </g>
    <g
       transform="matrix(0.26458333,0,0,0.26458333,-77.4133,-184.20198)"
       id="g1155"
       inkscape:export-xdpi="96"
       inkscape:export-ydpi="96">
      <path
         style="fill:#ffee06"
         inkscape:connector-curvature="0"
         d="m 984.106,759.55 31.43,18.582 a 4.262,4.262 0 0 0 6.464,-3.688 v -37.153 a 4.282,4.282 0 0 0 -6.464,-3.688 l -31.43,18.572 a 4.281,4.281 0 0 0 0,7.375 z"
         data-name="play-solid"
         id="play-solid-2" />
      <text
         y="761"
         x="1008"
         style="font-weight:700;font-size:14px;font-family:Montserrat-Bold, Montserrat;fill:#16160e"
         font-weight="700"
         font-size="14"
         id="X-">
        <tspan
           id="tspan635"
           y="761"
           x="1000.447">X-</tspan>
      </text>
    </g>
    <g
       transform="matrix(0.26458333,0,0,0.26458333,-77.4133,-184.20198)"
       id="g468">
      <path
         style="fill:#ffee06"
         inkscape:connector-curvature="0"
         d="m 1109.894,752.168 -31.43,-18.582 a 4.262,4.262 0 0 0 -6.464,3.688 v 37.153 a 4.282,4.282 0 0 0 6.464,3.688 l 31.43,-18.572 a 4.281,4.281 0 0 0 0,-7.375 z"
         id="play-solid" />
      <text
         y="761"
         x="1086"
         style="font-weight:700;font-size:14px;font-family:Montserrat-Bold, Montserrat;fill:#16160e"
         font-weight="700"
         font-size="14"
         data-name="X+"
         id="X_">
        <tspan
           id="tspan638"
           y="761"
           x="1076.9561">X+</tspan>
      </text>
    </g>
  </g>
</svg>
