<?xml version="1.0" encoding="UTF-8" standalone="no"?>
<!-- Created with Inkscape (http://www.inkscape.org/) -->

<svg
   xmlns:dc="http://purl.org/dc/elements/1.1/"
   xmlns:cc="http://creativecommons.org/ns#"
   xmlns:rdf="http://www.w3.org/1999/02/22-rdf-syntax-ns#"
   xmlns:svg="http://www.w3.org/2000/svg"
   xmlns="http://www.w3.org/2000/svg"
   xmlns:sodipodi="http://sodipodi.sourceforge.net/DTD/sodipodi-0.dtd"
   xmlns:inkscape="http://www.inkscape.org/namespaces/inkscape"
   width="3.7042804mm"
   height="13.060217mm"
   viewBox="0 0 3.7042804 13.060217"
   version="1.1"
   id="svg612"
   inkscape:version="0.92.3 (2405546, 2018-03-11)"
   sodipodi:docname="up-down-arrows.svg">
  <defs
     id="defs606" />
  <sodipodi:namedview
     id="base"
     pagecolor="#ffffff"
     bordercolor="#666666"
     borderopacity="1.0"
     inkscape:pageopacity="0.0"
     inkscape:pageshadow="2"
     inkscape:zoom="0.35"
     inkscape:cx="67.000214"
     inkscape:cy="-23.890695"
     inkscape:document-units="mm"
     inkscape:current-layer="layer1"
     showgrid="false"
     inkscape:pagecheckerboard="true"
     fit-margin-top="0"
     fit-margin-left="0"
     fit-margin-right="0"
     fit-margin-bottom="0"
     showborder="false"
     inkscape:window-width="2108"
     inkscape:window-height="1252"
     inkscape:window-x="0"
     inkscape:window-y="0"
     inkscape:window-maximized="1" />
  <metadata
     id="metadata609">
    <rdf:RDF>
      <cc:Work
         rdf:about="">
        <dc:format>image/svg+xml</dc:format>
        <dc:type
           rdf:resource="http://purl.org/dc/dcmitype/StillImage" />
        <dc:title></dc:title>
      </cc:Work>
    </rdf:RDF>
  </metadata>
  <g
     inkscape:label="Layer 1"
     inkscape:groupmode="layer"
     id="layer1"
     transform="translate(-88.106193,-129.45204)">
    <path
       style="fill:#ffee06;stroke-width:0.26458332"
       inkscape:connector-curvature="0"
       d="m 88.354429,131.63649 -0.188383,-0.18759 a 0.20267083,0.20267083 0 0 1 0,-0.2876 l 1.648354,-1.64941 a 0.20267083,0.20267083 0 0 1 0.287602,0 l 1.648354,1.64835 a 0.20267083,0.20267083 0 0 1 0,0.28761 l -0.188383,0.18838 a 0.20372917,0.20372917 0 0 1 -0.291042,-0.003 l -0.973138,-1.02156 v 2.4384 a 0.2032,0.2032 0 0 1 -0.203729,0.20373 h -0.270933 a 0.2032,0.2032 0 0 1 -0.203729,-0.20373 v -2.43893 l -0.973931,1.02341 a 0.20240625,0.20240625 0 0 1 -0.291042,0.003 z"
       id="arrow-up-solid" />
    <path
       style="fill:#ffee06;stroke-width:0.26458332"
       inkscape:connector-curvature="0"
       d="m 91.562237,140.32779 0.188384,0.18759 a 0.20267083,0.20267083 0 0 1 0,0.2876 l -1.648355,1.64942 a 0.20267083,0.20267083 0 0 1 -0.287602,0 l -1.648354,-1.64836 a 0.20267083,0.20267083 0 0 1 0,-0.2876 l 0.188383,-0.18838 a 0.20372917,0.20372917 0 0 1 0.291042,0.003 l 0.973138,1.02159 v -2.4384 a 0.2032,0.2032 0 0 1 0.203729,-0.20373 h 0.270933 a 0.2032,0.2032 0 0 1 0.203729,0.20373 v 2.43893 l 0.973932,-1.02341 a 0.20240625,0.20240625 0 0 1 0.291041,-0.003 z"
       data-name="arrow-up-solid"
       id="arrow-up-solid-2" />
  </g>
</svg>
