<svg xmlns="http://www.w3.org/2000/svg" xmlns:xlink="http://www.w3.org/1999/xlink" width="1600" height="900" viewBox="0 0 1600 900">
  <defs>
    <clipPath id="clip-path">
      <rect width="365" height="455" fill="none"/>
    </clipPath>
    <clipPath id="clip-Web_1920_6">
      <rect width="1600" height="900"/>
    </clipPath>
  </defs>
  <g id="Web_1920_6" data-name="Web 1920 – 6" clip-path="url(#clip-Web_1920_6)">
    <rect width="1600" height="900" fill="rgba(0,0,0,0.95)"/>
    <g id="Group_70" data-name="Group 70" transform="translate(113 190.51)">
      <rect id="Rectangle_72" data-name="Rectangle 72" width="1600" height="900" transform="translate(-113 -190.51)" fill="none"/>
      <g id="Rectangle_70" data-name="Rectangle 70" transform="translate(503 23.49)" fill="#16160e" stroke="#ffee06" stroke-width="2">
        <rect width="369" height="494" rx="10" stroke="none"/>
        <rect x="1" y="1" width="367" height="492" rx="9" fill="none"/>
      </g>
      <g id="Repeat_Grid_1" data-name="Repeat Grid 1" transform="translate(505 51.49)" clip-path="url(#clip-path)">
        <g transform="translate(-35 -53)">
          <rect id="Rectangle_27" data-name="Rectangle 27" width="533" height="30" transform="translate(35 53)"/>
        </g>
        <g transform="translate(-35 7)">
          <rect id="Rectangle_27-2" data-name="Rectangle 27" width="533" height="30" transform="translate(35 53)"/>
        </g>
        <g transform="translate(-35 67)">
          <rect id="Rectangle_27-3" data-name="Rectangle 27" width="533" height="30" transform="translate(35 53)"/>
        </g>
        <g transform="translate(-35 127)">
          <rect id="Rectangle_27-4" data-name="Rectangle 27" width="533" height="30" transform="translate(35 53)"/>
        </g>
        <g transform="translate(-35 187)">
          <rect id="Rectangle_27-5" data-name="Rectangle 27" width="533" height="30" transform="translate(35 53)"/>
        </g>
        <g transform="translate(-35 247)">
          <rect id="Rectangle_27-6" data-name="Rectangle 27" width="533" height="30" transform="translate(35 53)"/>
        </g>
        <g transform="translate(-35 307)">
          <rect id="Rectangle_27-7" data-name="Rectangle 27" width="533" height="30" transform="translate(35 53)"/>
        </g>
        <g transform="translate(-35 367)">
          <rect id="Rectangle_27-8" data-name="Rectangle 27" width="533" height="30" transform="translate(35 53)"/>
        </g>
      </g>
      <path id="Rectangle_71" data-name="Rectangle 71" d="M10,0H359a10,10,0,0,1,10,10V28a0,0,0,0,1,0,0H0a0,0,0,0,1,0,0V10A10,10,0,0,1,10,0Z" transform="translate(503 23.49)" fill="#ffee06"/>
      <text id="RECENT_FILES" data-name="RECENT FILES" transform="translate(687 45.49)" fill="#16160e" font-size="21" font-family="Montserrat-SemiBold, Montserrat" font-weight="600"><tspan x="-77.038" y="0">RECENT FILES</tspan></text>
    </g>
    <g id="Group_76" data-name="Group 76" transform="translate(0 -149)">
      <g id="Group_75" data-name="Group 75" transform="translate(41 121)">
        <text id="wrench.nc" transform="translate(668 321)" fill="#ffee06" font-size="17" font-family="Montserrat-SemiBold, Montserrat" font-weight="600"><tspan x="0" y="0">wrench.nc</tspan></text>
      </g>
      <path id="file-alt-solid" d="M8.75,5.313V0H.938A.935.935,0,0,0,0,.938V19.063A.935.935,0,0,0,.938,20H14.063A.935.935,0,0,0,15,19.063V6.25H9.688A.94.94,0,0,1,8.75,5.313Zm2.5,9.219a.47.47,0,0,1-.469.469H4.219a.47.47,0,0,1-.469-.469v-.313a.47.47,0,0,1,.469-.469h6.563a.47.47,0,0,1,.469.469Zm0-2.5a.47.47,0,0,1-.469.469H4.219a.47.47,0,0,1-.469-.469v-.312a.47.47,0,0,1,.469-.469h6.563a.47.47,0,0,1,.469.469Zm0-2.812v.313a.47.47,0,0,1-.469.469H4.219a.47.47,0,0,1-.469-.469V9.219a.47.47,0,0,1,.469-.469h6.563A.47.47,0,0,1,11.25,9.219ZM15,4.762V5H10V0h.238A.937.937,0,0,1,10.9.273L14.727,4.1A.935.935,0,0,1,15,4.762Z" transform="translate(676 426)" fill="#ffee06"/>
    </g>
    <g id="Group_77" data-name="Group 77" transform="translate(0 -119)">
      <g id="Group_75-2" data-name="Group 75" transform="translate(41 121)">
        <text id="gear.nc" transform="translate(668 321)" fill="#ffee06" font-size="17" font-family="Montserrat-SemiBold, Montserrat" font-weight="600"><tspan x="0" y="0">gear.nc</tspan></text>
      </g>
      <path id="file-alt-solid-2" data-name="file-alt-solid" d="M8.75,5.313V0H.938A.935.935,0,0,0,0,.938V19.063A.935.935,0,0,0,.938,20H14.063A.935.935,0,0,0,15,19.063V6.25H9.688A.94.94,0,0,1,8.75,5.313Zm2.5,9.219a.47.47,0,0,1-.469.469H4.219a.47.47,0,0,1-.469-.469v-.313a.47.47,0,0,1,.469-.469h6.563a.47.47,0,0,1,.469.469Zm0-2.5a.47.47,0,0,1-.469.469H4.219a.47.47,0,0,1-.469-.469v-.312a.47.47,0,0,1,.469-.469h6.563a.47.47,0,0,1,.469.469Zm0-2.812v.313a.47.47,0,0,1-.469.469H4.219a.47.47,0,0,1-.469-.469V9.219a.47.47,0,0,1,.469-.469h6.563A.47.47,0,0,1,11.25,9.219ZM15,4.762V5H10V0h.238A.937.937,0,0,1,10.9.273L14.727,4.1A.935.935,0,0,1,15,4.762Z" transform="translate(676 426)" fill="#ffee06"/>
    </g>
    <g id="Group_78" data-name="Group 78" transform="translate(0 -89)">
      <g id="Group_75-3" data-name="Group 75" transform="translate(41 121)">
        <text id="side-plate.nc" transform="translate(668 321)" fill="#ffee06" font-size="17" font-family="Montserrat-SemiBold, Montserrat" font-weight="600"><tspan x="0" y="0">side-plate.nc</tspan></text>
      </g>
      <path id="file-alt-solid-3" data-name="file-alt-solid" d="M8.75,5.313V0H.938A.935.935,0,0,0,0,.938V19.063A.935.935,0,0,0,.938,20H14.063A.935.935,0,0,0,15,19.063V6.25H9.688A.94.94,0,0,1,8.75,5.313Zm2.5,9.219a.47.47,0,0,1-.469.469H4.219a.47.47,0,0,1-.469-.469v-.313a.47.47,0,0,1,.469-.469h6.563a.47.47,0,0,1,.469.469Zm0-2.5a.47.47,0,0,1-.469.469H4.219a.47.47,0,0,1-.469-.469v-.312a.47.47,0,0,1,.469-.469h6.563a.47.47,0,0,1,.469.469Zm0-2.812v.313a.47.47,0,0,1-.469.469H4.219a.47.47,0,0,1-.469-.469V9.219a.47.47,0,0,1,.469-.469h6.563A.47.47,0,0,1,11.25,9.219ZM15,4.762V5H10V0h.238A.937.937,0,0,1,10.9.273L14.727,4.1A.935.935,0,0,1,15,4.762Z" transform="translate(676 426)" fill="#ffee06"/>
    </g>
  </g>
</svg>
