<svg xmlns="http://www.w3.org/2000/svg" xmlns:xlink="http://www.w3.org/1999/xlink" width="1600" height="900" viewBox="0 0 1600 900">
  <defs>
    <clipPath id="clip-path">
      <rect width="701" height="711" fill="none"/>
    </clipPath>
    <clipPath id="clip-Web_1920_7">
      <rect width="1600" height="900"/>
    </clipPath>
  </defs>
  <g id="Web_1920_7" data-name="Web 1920 – 7" clip-path="url(#clip-Web_1920_7)">
    <rect width="1600" height="900" fill="rgba(0,0,0,0.95)"/>
    <rect id="Rectangle_74" data-name="Rectangle 74" width="1600" height="900" fill="rgba(0,0,0,0.95)"/>
    <g id="Group_81" data-name="Group 81" transform="translate(-2 -21)">
      <g id="Group_70" data-name="Group 70" transform="translate(-55.375 51.958)">
        <g id="Group_79" data-name="Group 79" transform="translate(503.375 23.042)">
          <g id="Rectangle_70" data-name="Rectangle 70" fill="#16160e" stroke="#ffee06" stroke-width="2">
            <rect width="705" height="750" rx="10" stroke="none"/>
            <rect x="1" y="1" width="703" height="748" rx="9" fill="none"/>
          </g>
          <g id="Repeat_Grid_1" data-name="Repeat Grid 1" transform="translate(2 28)" clip-path="url(#clip-path)">
            <g transform="translate(-35 -53)">
              <rect id="Rectangle_27" data-name="Rectangle 27" width="915" height="30" transform="translate(35 53)"/>
            </g>
            <g transform="translate(518 -53)">
              <rect id="Rectangle_27-2" data-name="Rectangle 27" width="915" height="30" transform="translate(35 53)"/>
            </g>
            <g transform="translate(-35 7)">
              <rect id="Rectangle_27-3" data-name="Rectangle 27" width="915" height="30" transform="translate(35 53)"/>
            </g>
            <g transform="translate(518 7)">
              <rect id="Rectangle_27-4" data-name="Rectangle 27" width="915" height="30" transform="translate(35 53)"/>
            </g>
            <g transform="translate(-35 67)">
              <rect id="Rectangle_27-5" data-name="Rectangle 27" width="915" height="30" transform="translate(35 53)"/>
            </g>
            <g transform="translate(518 67)">
              <rect id="Rectangle_27-6" data-name="Rectangle 27" width="915" height="30" transform="translate(35 53)"/>
            </g>
            <g transform="translate(-35 127)">
              <rect id="Rectangle_27-7" data-name="Rectangle 27" width="915" height="30" transform="translate(35 53)"/>
            </g>
            <g transform="translate(518 127)">
              <rect id="Rectangle_27-8" data-name="Rectangle 27" width="915" height="30" transform="translate(35 53)"/>
            </g>
            <g transform="translate(-35 187)">
              <rect id="Rectangle_27-9" data-name="Rectangle 27" width="915" height="30" transform="translate(35 53)"/>
            </g>
            <g transform="translate(518 187)">
              <rect id="Rectangle_27-10" data-name="Rectangle 27" width="915" height="30" transform="translate(35 53)"/>
            </g>
            <g transform="translate(-35 247)">
              <rect id="Rectangle_27-11" data-name="Rectangle 27" width="915" height="30" transform="translate(35 53)"/>
            </g>
            <g transform="translate(518 247)">
              <rect id="Rectangle_27-12" data-name="Rectangle 27" width="915" height="30" transform="translate(35 53)"/>
            </g>
            <g transform="translate(-35 307)">
              <rect id="Rectangle_27-13" data-name="Rectangle 27" width="915" height="30" transform="translate(35 53)"/>
            </g>
            <g transform="translate(518 307)">
              <rect id="Rectangle_27-14" data-name="Rectangle 27" width="915" height="30" transform="translate(35 53)"/>
            </g>
            <g transform="translate(-35 367)">
              <rect id="Rectangle_27-15" data-name="Rectangle 27" width="915" height="30" transform="translate(35 53)"/>
            </g>
            <g transform="translate(518 367)">
              <rect id="Rectangle_27-16" data-name="Rectangle 27" width="915" height="30" transform="translate(35 53)"/>
            </g>
            <g transform="translate(-35 427)">
              <rect id="Rectangle_27-17" data-name="Rectangle 27" width="915" height="30" transform="translate(35 53)"/>
            </g>
            <g transform="translate(518 427)">
              <rect id="Rectangle_27-18" data-name="Rectangle 27" width="915" height="30" transform="translate(35 53)"/>
            </g>
            <g transform="translate(-35 487)">
              <rect id="Rectangle_27-19" data-name="Rectangle 27" width="915" height="30" transform="translate(35 53)"/>
            </g>
            <g transform="translate(518 487)">
              <rect id="Rectangle_27-20" data-name="Rectangle 27" width="915" height="30" transform="translate(35 53)"/>
            </g>
            <g transform="translate(-35 547)">
              <rect id="Rectangle_27-21" data-name="Rectangle 27" width="915" height="30" transform="translate(35 53)"/>
            </g>
            <g transform="translate(518 547)">
              <rect id="Rectangle_27-22" data-name="Rectangle 27" width="915" height="30" transform="translate(35 53)"/>
            </g>
            <g transform="translate(-35 607)">
              <rect id="Rectangle_27-23" data-name="Rectangle 27" width="915" height="30" transform="translate(35 53)"/>
            </g>
            <g transform="translate(518 607)">
              <rect id="Rectangle_27-24" data-name="Rectangle 27" width="915" height="30" transform="translate(35 53)"/>
            </g>
          </g>
          <path id="Rectangle_71" data-name="Rectangle 71" d="M10,0H695a10,10,0,0,1,10,10V28a0,0,0,0,1,0,0H0a0,0,0,0,1,0,0V10A10,10,0,0,1,10,0Z" fill="#ffee06"/>
        </g>
        <text id="EDIT-_wrench.nc" data-name="EDIT- wrench.nc" transform="translate(853.375 45.042)" fill="#16160e" font-size="21" font-family="Montserrat-SemiBold, Montserrat" font-weight="600"><tspan x="-88.83" y="0">EDIT- wrench.nc</tspan></text>
      </g>
      <g id="Group_80" data-name="Group 80">
        <g id="Rectangle_43" data-name="Rectangle 43" transform="translate(448 842)" fill="none" stroke="#ffee06" stroke-width="2">
          <rect width="95" height="25" rx="10" stroke="none"/>
          <rect x="1" y="1" width="93" height="23" rx="9" fill="none"/>
        </g>
        <g id="Rectangle_73" data-name="Rectangle 73" transform="translate(1061 842)" fill="none" stroke="#ffee06" stroke-width="2">
          <rect width="95" height="25" rx="10" stroke="none"/>
          <rect x="1" y="1" width="93" height="23" rx="9" fill="none"/>
        </g>
        <text id="SAVE" transform="translate(496 860)" fill="#ffee06" font-size="15" font-family="Montserrat-SemiBold, Montserrat" font-weight="600"><tspan x="-20.437" y="0">SAVE</tspan></text>
        <text id="CLOSE" transform="translate(1109 860)" fill="#ffee06" font-size="15" font-family="Montserrat-SemiBold, Montserrat" font-weight="600"><tspan x="-25.905" y="0">CLOSE</tspan></text>
        <text id="N0_Filename:_10267.TAP_N2_Date:_6_1_2016_N9_G20_Units:Inches_N10_G90_N11_Part:_P52_N12_M6_T1_Plasma_N13_G00_X1.1232_Y0.503_F100._N14_M63_P60_N15_M3_N16_G01_X1.1585_Y0.4676_F100._N17_G01_X1.2116_Y0.4146_F100._G09_N18_G01_X1.2116_Y1.3366_F100._N19_" data-name="N0 (Filename: 10267.TAP)
N2 (Date: 6/1/2016)
N9 G20 (Units:Inches)
N10 G90
N11 (Part: P52)
N12 M6 T1 (Plasma)
N13 G00 X1.1232 Y0.503 F100.
N14 M63 P60
N15 M3
N16 G01 X1.1585 Y0.4676 F100.
N17 G01 X1.2116 Y0.4146 F100. G09
N18 G01 X1.2116 Y1.3366 F100.
N19 " transform="translate(470 126)" fill="#ffee06" font-size="22" font-family="Montserrat-Regular, Montserrat" letter-spacing="0.029em"><tspan x="0" y="0">N0 (Filename: 10267.TAP)</tspan><tspan x="0" y="30">N2 (Date: 6/1/2016)</tspan><tspan x="0" y="60">N9 G20 (Units:Inches)</tspan><tspan x="0" y="90">N10 G90</tspan><tspan x="0" y="120">N11 (Part: P52)</tspan><tspan x="0" y="150">N12 M6 T1 (Plasma)</tspan><tspan x="0" y="180">N13 G00 X1.1232 Y0.503 F100.</tspan><tspan x="0" y="210">N14 M63 P60</tspan><tspan x="0" y="240">N15 M3</tspan><tspan x="0" y="270">N16 G01 X1.1585 Y0.4676 F100.</tspan><tspan x="0" y="300">N17 G01 X1.2116 Y0.4146 F100. G09</tspan><tspan x="0" y="330">N18 G01 X1.2116 Y1.3366 F100.</tspan><tspan x="0" y="360">N19 G01 X0.2896 Y1.3366 F100.</tspan><tspan x="0" y="390">N20 G01 X0.2896 Y0.4146 F100.</tspan><tspan x="0" y="420">N21 G01 X1.1916 Y0.4146 F100. G09</tspan></text>
      </g>
    </g>
  </g>
</svg>
